DISCOVER WINDOWS 7 from Technology Skills is a rich,multimedia learning tool for users of Microsoft
Windows 7.With Windows 7 everyday tasks are simpler.Learn how to scan all your open windows with live 
taskbar previews.Find a file,connect to a network or use snap to arrange a couple of windows side by side-
all in just a few clicks.You will also become skilled at having your PC work the way you want.
Personalize your computer with fast sleep and Resume features,and use more of your older programs in Windows
XP mode.Plus,you will find out how to do new things like using a touch-screen instead of a mouse,
connecting to printers fast,and using your PC to record live TV or watch internet TV.

Disc #1-Level 1 (Duration-133 minutes)
1. Exploring Windows 7

    Desktop Enhancements
    Navigating The Start Menu And Windows
    Using The Taskbar
    Using Libraries
    Accessing Help

2. Working With Windows Explorer and Folders

    Windows Explorer in Windows7
    Navigation with Windows Explorer
    Folder Options
    How To Manage File And Folders
    Search Capabilities

3. Customizing Windows 7

    Customizing Windows Operating System
    How To Customize A Taskbar And Notification
    How To Customize Settings Of Windows 7 Desktop
    Using Desktop Gadget
    Libraries Functionality

4. Using Control Panel

    Understanding Control Panel Views
    Configuring Mouse And Sound Settings
    Creating And Managing User Accounts
    User Account Control
    Adding And Removing Programs

5. Networking With Windows 7

    Creating And Managing Home Groups
    Sharing Resources
    Using Internet Explorer 8


 

Disc #2-Level 2   (Duration-108 minutes)
1. Configuring Hardware Devices

    Installing Hardware Devices
    Working With Flash Drives
    Installing Printers
    Print Queue

2. Backing Up And Restoring Files

    Using Windows Backup
    Using Shadow Copies
    Using System Restore

3. Security In Windows 7

    Configuring The Windows Firewall
    Using Windows Update
    Using Antispyware And Antivirus Software
    Family Safety

4. Configuring Internet Explorer 8

    Configuring Browser Settings
    Configuring Browser Security

5. Customizing Networks

    Configuring And Customizing Networking
    Advanced Sharing Permission And Setting
    Network And Sharing Center
    Troubleshooting Network Connectivity Problems    

INFO: 

Format                                   : MPEG-4
Format profile                           : Base Media / Version 2
Codec ID                                 : mp42 
Overall bit rate mode                    : Variable
Overall bit rate                         : 2 052 Kbps 

Video
ID                                       : 1
Format                                   : AVC
Format/Info                              : Advanced Video Codec
Format profile                           : Main@L3.0
Format settings, CABAC                   : Yes
Format settings, ReFrames                : 2 frames
Codec ID                                 : avc1
Codec ID/Info                            : Advanced Video Coding 
Bit rate mode                            : Variable
Bit rate                                 : 1 864 Kbps
Maximum bit rate                         : 8 557 Kbps
Width                                    : 720 pixels
Height                                   : 480 pixels
Display aspect ratio                     : 4:3
Original display aspect ratio            : 4:3
Frame rate mode                          : Constant
Frame rate                               : 29.970 fps
Standard                                 : NTSC
Color space                              : YUV
Chroma subsampling                       : 4:2:0
Bit depth                                : 8 bits
Scan type                                : Progressive
Bits/(Pixel*Frame)                       : 0.180
Stream size                              : 1.96 GiB (91%)
Language                                 : English 

Audio
ID                                       : 2
Format                                   : AAC
Format/Info                              : Advanced Audio Codec
Format profile                           : LC
Codec ID                                 : 40 
Bit rate mode                            : Variable
Bit rate                                 : 184 Kbps
Maximum bit rate                         : 221 Kbps
Channel(s)                               : 2 channels
Channel positions                        : Front: L R
Sampling rate                            : 48.0 KHz
Compression mode                         : Lossy
Stream size                              : 198 MiB (9%)
Language                                 : English 

SIZE: 3.70GB  